<svg width="32" height="34" viewBox="0 0 32 34" fill="none" xmlns="http://www.w3.org/2000/svg">
<path d="M21.7896 9.94363C19.5179 8.10496 16.6839 7.10178 13.7614 7.10177C6.71363 7.10177 1 12.8154 1 19.8632C1.00008 23.0026 2.15731 26.0318 4.2504 28.3717C5.84646 30.1556 7.91202 31.4546 10.2112 32.1205C12.5104 32.7864 14.9505 32.7923 17.2529 32.1375C19.3039 31.5539 21.1759 30.4658 22.6981 28.9724C24.2202 27.479 25.3438 25.628 25.9663 23.5884C26.5888 21.5489 26.6903 19.3859 26.2615 17.2971C25.8327 15.2083 24.8874 13.2602 23.5118 11.6308M24.3229 4.56248L25.4853 5.47615M23.4545 5.3035L24.6169 6.21802M25.9733 3.02147L27.1357 3.93513M25.1049 3.76334L26.2673 4.67615M27.7391 1.51977L28.9023 2.43258M26.8716 2.26164L28.034 3.17446M4.24954 28.3683C5.57859 27.4794 6.78542 26.3768 6.88542 23.5777C6.97089 21.1829 8.53071 18.6444 10.5298 18.5265C11.1409 18.4906 11.7982 18.8914 10.9888 20.6333C10.029 22.6965 12.4948 24.7016 13.823 22.5905L23.6562 6.9693C23.4297 6.49665 22.9366 6.09067 23.8041 5.36504L28.7493 1.24028C29.2391 0.830032 30.4288 0.93174 30.7955 1.64883C31.3878 2.80437 30.6698 4.15992 28.9502 4.05052L27.934 6.62058C27.787 6.99323 27.6186 7.28724 27.163 7.23767C26.2972 7.14707 25.7724 7.63425 25.3972 8.29236L15.0794 26.4161C15.4392 28.1101 17.0161 28.5614 18.9631 26.9896C20.3272 25.8888 20.8075 26.9597 20.5494 28.4811C20.2674 30.1486 19.0409 30.7289 17.6956 31.6947C17.5127 31.8229 17.3494 31.9759 17.2084 32.1494" stroke="#303030" stroke-linecap="round" stroke-linejoin="round"/>
</svg>
