<svg width="36" height="30" viewBox="0 0 36 30" fill="none" xmlns="http://www.w3.org/2000/svg">
<path d="M19.4818 29.3699C19.2821 29.1709 19.1237 28.9344 19.0155 28.674C18.9074 28.4136 18.8518 28.1345 18.8518 27.8525C18.8518 27.5706 18.9074 27.2914 19.0155 27.031C19.1237 26.7706 19.2821 26.5341 19.4818 26.3351L28.6737 17.1432L2.43158 17.1432C1.86342 17.1432 1.31854 16.9175 0.916801 16.5158C0.515057 16.114 0.28936 15.5692 0.28936 15.001C0.28936 14.4329 0.515057 13.888 0.916801 13.4862C1.31854 13.0845 1.86342 12.8588 2.43158 12.8588L28.6737 12.8588L19.4818 3.66333C19.0794 3.26089 18.8533 2.71507 18.8533 2.14593C18.8533 1.5768 19.0794 1.03097 19.4818 0.628529C19.8843 0.226089 20.4301 5.99683e-09 20.9992 0C21.5684 -5.99683e-09 22.1142 0.226089 22.5166 0.628529L35.3699 13.4818C35.5696 13.6808 35.7281 13.9173 35.8362 14.1777C35.9443 14.4381 36 14.7173 36 14.9992C36 15.2812 35.9443 15.5603 35.8362 15.8207C35.7281 16.0811 35.5696 16.3176 35.3699 16.5166L22.5166 29.3699C22.3176 29.5696 22.0811 29.7281 21.8207 29.8362C21.5603 29.9443 21.2812 30 20.9992 30C20.7173 30 20.4381 29.9443 20.1777 29.8362C19.9173 29.7281 19.6808 29.5696 19.4818 29.3699Z" fill="#303030"/>
</svg>
