<svg width="30" height="35" viewBox="0 0 30 35" fill="none" xmlns="http://www.w3.org/2000/svg">
<path d="M30 8.07824V9.77892C29.9978 10.5705 29.8115 11.3507 29.4558 12.0578C29.1106 12.7711 28.604 13.3941 27.9762 13.8776C27.3493 14.3561 26.6227 14.6874 25.8503 14.8469C25.0731 14.9953 24.2734 14.9779 23.5034 14.7959L16.2925 12.7551V26.7347C16.297 28.6103 15.6541 30.43 14.4723 31.8866C13.2906 33.3431 11.6424 34.3473 9.80616 34.7294C7.96988 35.1116 6.05796 34.8484 4.39324 33.9843C2.72851 33.1202 1.41297 31.7081 0.668738 29.9864C-0.0754962 28.2648 -0.202826 26.339 0.308248 24.5344C0.819322 22.7297 1.93749 21.1567 3.47395 20.0809C5.01041 19.0052 6.87102 18.4925 8.74164 18.6296C10.6123 18.7667 12.3783 19.5451 13.7415 20.8333V1.22449C13.7236 1.11181 13.7236 0.99703 13.7415 0.884354V0.7483C13.8238 0.559393 13.9501 0.392912 14.1099 0.262743C14.2696 0.132573 14.4582 0.0424873 14.6599 0H15.4082L26.1224 3.04422C27.2153 3.33841 28.1793 3.98763 28.8628 4.88971C29.5463 5.79178 29.9105 6.89552 29.898 8.02722L30 8.07824Z" fill="#303030"/>
</svg>
